<?xml version="1.0" encoding="UTF-8" standalone="no"?>
<!-- Created with Inkscape (http://www.inkscape.org/) -->

<svg
   version="1.1"
   id="svg1"
   width="16"
   height="16"
   viewBox="0 0 16 16"
   xmlns="http://www.w3.org/2000/svg"
   xmlns:svg="http://www.w3.org/2000/svg">
  <defs
     id="defs1">
    <clipPath
       clipPathUnits="userSpaceOnUse"
       id="clipPath2">
      <path
         d="M 0,308.081 H 339.87 V 0 H 0 Z"
         transform="translate(-185.08791,-104.1846)"
         id="path2" />
    </clipPath>
  </defs>
  <path
     id="path1"
     d="m 0,0 c -0.8,-1.749 -2.614,-4.669 -5.063,-4.759 -4.365,-0.159 -4.832,2.078 -8.058,6.853 -7.083,10.481 -68.896,75.084 -80.458,87.577 -10.169,10.99 -1.432,18.737 2.621,22.797 5.085,5.094 19.928,19.928 19.928,19.928 0,0 44.258,-41.992 62.694,-70.684 C 10.1,33.021 3.746,8.193 0,0 m -71.026,-60.177 c -20.495,0 -37.108,16.614 -37.109,37.108 v 10e-4 c 0,9.395 3.736,17.768 9.25,24.51 6.691,8.183 27.854,31.196 27.854,31.196 0,0 20.839,-23.351 27.804,-31.117 6.068,-6.745 9.389,-15.517 9.31,-24.589 0,-20.495 -16.615,-37.109 -37.109,-37.109 m -62.037,55.466 c -6.616,0.226 -31.033,42.31 14.264,87.12 l 29.974,-32.742 c 1.006,-0.995 1.016,-2.617 0.022,-3.624 -0.071,-0.07 -0.145,-0.137 -0.222,-0.199 -7.153,-7.336 -37.639,-37.907 -41.428,-48.479 -0.782,-2.181 -1.925,-2.099 -2.61,-2.076 m 106.436,139.127 c -19.839,19.831 -38.769,38.734 -44.402,60.055 -5.634,-21.321 -24.566,-40.224 -44.403,-60.055 -29.755,-29.736 -63.491,-63.438 -63.491,-113.984 0,-59.59 48.307,-107.898 107.897,-107.898 59.589,0 107.897,48.308 107.897,107.898 0,50.543 -33.733,84.248 -63.498,113.984"
     style="fill:#5eead4;fill-opacity:1;fill-rule:nonzero;stroke:none"
     transform="matrix(0.05675027,0,0,-0.05675027,12.030745,11.036281)"
     clip-path="url(#clipPath2)" />
</svg>
