<?xml version="1.0" encoding="UTF-8" standalone="no"?>
<svg
   width="16"
   height="16"
   version="1.1"
   id="svg1"
   xmlns="http://www.w3.org/2000/svg"
   xmlns:svg="http://www.w3.org/2000/svg">
  <defs
     id="defs1" />
  <path
     fill-rule="evenodd"
     clip-rule="evenodd"
     d="m 8.0066177,0.13330833 c -4.4274538,0 -8.0066195767949,3.60555187 -8.0066195767949,8.06611117 0,3.5655625 2.2932948767949,6.5837375 5.4747026767949,7.6519645 0.397758,0.0803 0.543455,-0.173559 0.543455,-0.387106 0,-0.186997 -0.013111,-0.827965 -0.013111,-1.495812 C 3.777797,14.449316 3.3139919,13.006931 3.3139919,13.006931 2.956059,12.07211 2.4257151,11.831849 2.4257151,11.831849 c -0.7289771,-0.494125 0.0531,-0.494125 0.0531,-0.494125 0.808627,0.05343 1.2329349,0.827966 1.2329349,0.827966 0.715702,1.22851 1.8689869,0.881394 2.3329559,0.667683 0.066211,-0.520839 0.278447,-0.881394 0.5037939,-1.081666 C 4.77211,11.56471 2.903123,10.870314 2.903123,7.7719977 c 0,-0.8813935 0.3179441,-1.6025039 0.8217381,-2.1633311 -0.079486,-0.200272 -0.357933,-1.0284017 0.07965,-2.1367812 0,0 0.676041,-0.2137108 2.20037,0.8279659 A 7.6978533,7.6978533 0 0 1 8.0066177,4.0327127 c 0.676041,0 1.3651931,0.09358 2.0015733,0.2671386 1.524492,-1.0416767 2.200533,-0.8279659 2.200533,-0.8279659 0.437583,1.1083795 0.158972,1.9365092 0.07949,2.1367812 0.517069,0.5608272 0.821902,1.2819376 0.821902,2.1633311 0,3.0983163 -1.868987,3.7792733 -3.6586513,3.9797093 0.2917219,0.2537 0.543455,0.734386 0.543455,1.495649 0,1.081665 -0.013111,1.949784 -0.013111,2.216759 0,0.21371 0.1458603,0.467574 0.5434543,0.387433 3.181408,-1.068555 5.474703,-4.086566 5.474703,-7.6521285 0.01311,-4.4605593 -3.57917,-8.06611117 -7.9933483,-8.06611117 z"
     fill="#24292f"
     id="path1"
     style="stroke-width:0.163889;fill:#5eead4" />
</svg>
